<svg xmlns="http://www.w3.org/2000/svg" width="52.715" height="52.715" viewBox="0 0 52.715 52.715">
  <defs>
    <style>
      .cls-1 {
        fill: #585858;
        fill-rule: evenodd;
      }
    </style>
  </defs>
  <path id="iconmonstr-spotify-1" class="cls-1" d="M41.948,23.366c-8.5-5.045-22.509-5.509-30.621-3.046A2.465,2.465,0,0,1,9.9,15.6c9.311-2.827,24.787-2.28,34.568,3.525a2.465,2.465,0,1,1-2.517,4.239Zm-.277,7.475a2.058,2.058,0,0,1-2.827.677c-7.084-4.353-17.884-5.616-26.265-3.073a2.054,2.054,0,1,1-1.193-3.932c9.572-2.9,21.473-1.5,29.608,3.5A2.055,2.055,0,0,1,41.671,30.84Zm-3.227,7.176a1.639,1.639,0,0,1-2.258.547c-6.19-3.782-13.98-4.637-23.155-2.541a1.642,1.642,0,0,1-.731-3.2c10.04-2.3,18.652-1.307,25.6,2.939A1.64,1.64,0,0,1,38.444,38.016ZM26.357,0A26.357,26.357,0,1,0,52.715,26.357,26.359,26.359,0,0,0,26.357,0Z" transform="translate(0 0)"/>
</svg>
