<svg xmlns="http://www.w3.org/2000/svg" width="22" height="22" viewBox="0 0 22 22">
  <g id="组_631" data-name="组 631" transform="translate(-2.5 -2.5)">
    <path id="路径_2051" data-name="路径 2051" d="M37.167,28.591,32,31.37a1.867,1.867,0,0,0-.672.672l-2.779,5.164a.845.845,0,0,0,.139,1,.829.829,0,0,0,.579.255.761.761,0,0,0,.394-.093l5.187-2.756a1.867,1.867,0,0,0,.672-.672l2.756-5.187a.845.845,0,0,0-.139-1A.8.8,0,0,0,37.167,28.591Z" transform="translate(-19.939 -19.977)" fill="#fff" opacity="0.49"/>
    <path id="路径_2052" data-name="路径 2052" d="M13.5,2.5a11,11,0,1,0,11,11A11.01,11.01,0,0,0,13.5,2.5Zm0,19.916A8.916,8.916,0,1,1,22.416,13.5,8.92,8.92,0,0,1,13.5,22.416Z" fill="#fff"/>
  </g>
</svg>
