<svg id="组_586" data-name="组 586" xmlns="http://www.w3.org/2000/svg" width="18.37" height="20.885" viewBox="0 0 18.37 20.885">
  <rect id="矩形_93" data-name="矩形 93" width="18.34" height="20.88" opacity="0"/>
  <g id="组_34" data-name="组 34">
    <g id="矩形_3" data-name="矩形 3" opacity="0.5">
      <rect id="矩形_94" data-name="矩形 94" width="8.39" height="10.91" rx="2" transform="translate(4.81 9.74)" fill="none"/>
      <path id="路径_2039" data-name="路径 2039" d="M11.21,20.65H6.81a2,2,0,0,1-2-2V11.74a2,2,0,0,1,2-2H11.2a2,2,0,0,1,2,2v6.91a2,2,0,0,1-1.99,2Zm-4.4-8.91h0v6.91H11.2V11.74Z" fill="#fff"/>
    </g>
  </g>
  <g id="组_565" data-name="组 565">
    <g id="组_556" data-name="组 556">
      <g id="路径_20" data-name="路径 20">
        <path id="路径_2040" data-name="路径 2040" d="M17.17,20.88H5.91a1.165,1.165,0,1,1,0-2.33H16V7.87L9.17,2.35,2.33,7.87V19.72a1.165,1.165,0,0,1-2.33,0V7.82A2.25,2.25,0,0,1,.81,6.11l7-5.63a2.21,2.21,0,0,1,2.75,0l7,5.63a2.15,2.15,0,0,1,.81,1.72V19.74A1.17,1.17,0,0,1,17.17,20.88Z" fill="#fff"/>
      </g>
    </g>
  </g>
</svg>
