<svg xmlns="http://www.w3.org/2000/svg" width="42" height="42" viewBox="0 0 42 42">
  <path id="iconmonstr-spotify-1" d="M33.422,18.617c-6.769-4.02-17.934-4.389-24.4-2.427A1.964,1.964,0,0,1,7.885,12.43c7.418-2.252,19.749-1.817,27.541,2.809a1.964,1.964,0,1,1-2.005,3.378ZM33.2,24.572a1.64,1.64,0,0,1-2.252.539C25.3,21.642,16.7,20.636,10.022,22.663a1.637,1.637,0,1,1-.95-3.132c7.627-2.313,17.108-1.194,23.59,2.791A1.637,1.637,0,0,1,33.2,24.572ZM30.63,30.289a1.306,1.306,0,0,1-1.8.436C23.9,27.711,17.693,27.031,10.383,28.7A1.309,1.309,0,0,1,9.8,26.149c8-1.829,14.861-1.041,20.4,2.342A1.307,1.307,0,0,1,30.63,30.289ZM21,0A21,21,0,1,0,42,21,21,21,0,0,0,21,0Z" transform="translate(0 0)" fill="#fff" fill-rule="evenodd"/>
</svg>
