<svg id="组_563" data-name="组 563" xmlns="http://www.w3.org/2000/svg" width="19.326" height="20.818" viewBox="0 0 19.326 20.818">
  <g id="图稿_2" data-name="图稿 2" transform="translate(9.663 10.409)">
    <g id="组_32" data-name="组 32" transform="translate(-9.663 -10.409)">
      <rect id="矩形_37" data-name="矩形 37" width="1.343" height="4.477" transform="translate(0.003 10.682)" fill="#fffdfd" opacity="0.5"/>
      <path id="路径_36" data-name="路径 36" d="M4,329.363q-.183.029-.364.072v.052A4.605,4.605,0,0,0,0,333.565v.383a4.6,4.6,0,0,0,4,4.586,1.112,1.112,0,0,0,2-.655V330.05A1.119,1.119,0,0,0,4,329.363Z" transform="translate(0 -318.16)" fill="#fffdfd"/>
      <path id="路径_37" data-name="路径 37" d="M410.309,329.461v-.036c-.1-.023-.206-.046-.311-.062a1.119,1.119,0,0,0-2,.688v7.829a1.112,1.112,0,0,0,2,.655q.157-.02.311-.052v-.013a4.612,4.612,0,0,0,3.22-2.555l.007-.016.013-.026a4.671,4.671,0,0,0,.413-1.916A4.6,4.6,0,0,0,410.309,329.461Z" transform="translate(-394.635 -318.16)" fill="#fffdfd"/>
      <rect id="矩形_38" data-name="矩形 38" width="1.343" height="4.477" transform="translate(17.983 10.757)" fill="#fffdfd" opacity="0.5"/>
      <path id="路径_38" data-name="路径 38" d="M18.016,10.744h1.31V9.532C19.326,3.832,15.2,0,9.663,0S0,3.832,0,9.532v1.212H2C2,5.765,4.52,2.326,9.663,2.326c5.274,0,7.665,3.57,7.665,8.418Z" fill="#fffdfd"/>
    </g>
  </g>
</svg>
