<svg id="noun_Shuffle_1282195" xmlns="http://www.w3.org/2000/svg" width="15.696" height="11.386" viewBox="0 0 15.696 11.386">
  <g id="组_131" data-name="组 131" transform="translate(0 0)">
    <path id="路径_281" data-name="路径 281" d="M12.212,14.563c-2.712,0-4.023-1.58-5.549-3.43C5.118,9.3,3.394,7.2,0,7.2V8.637c2.712,0,4.023,1.58,5.549,3.43C7.094,13.9,8.818,16,12.212,16v1.293L15.7,15.282,12.212,13.27Z" transform="translate(0 -5.907)" fill="#fff"/>
    <path id="路径_282" data-name="路径 282" d="M4.813,34C3.556,35.437,2.263,36.55,0,36.55v1.437a7.307,7.307,0,0,0,5.747-2.873c-.216-.251-.413-.485-.611-.718C5.029,34.251,4.921,34.126,4.813,34Z" transform="translate(0 -27.894)" fill="#fff"/>
    <path id="路径_283" data-name="路径 283" d="M36.934,5.28c1.257-1.437,2.55-2.55,4.813-2.55V4.023l3.484-2.011L41.747,0V1.293A7.307,7.307,0,0,0,36,4.166c.216.251.413.485.611.718C36.718,5.029,36.826,5.154,36.934,5.28Z" transform="translate(-29.535)" fill="#fff"/>
  </g>
</svg>
