<svg id="组_585" data-name="组 585" xmlns="http://www.w3.org/2000/svg" width="18.336" height="20.881" viewBox="0 0 18.336 20.881">
  <g id="组_610" data-name="组 610">
    <g id="矩形_3" data-name="矩形 3" transform="translate(4.813 9.737)" fill="rgba(65,70,217,0)" stroke="#fff" stroke-width="2" opacity="0.5">
      <rect width="8.392" height="10.91" rx="2" stroke="none"/>
      <rect x="1" y="1" width="6.392" height="8.91" rx="1" fill="none"/>
    </g>
    <path id="路径_20" data-name="路径 20" d="M25.471,23.406H14.214a1.165,1.165,0,0,1,0-2.33H24.306V10.39L17.468,4.872,10.63,10.39v11.85a1.165,1.165,0,0,1-2.33,0V10.346a2.247,2.247,0,0,1,.813-1.715L16.083,3a2.213,2.213,0,0,1,2.748,0l6.991,5.628a2.147,2.147,0,0,1,.813,1.715V22.263A1.169,1.169,0,0,1,25.471,23.406Z" transform="translate(-8.3 -2.525)" fill="#fff"/>
  </g>
</svg>
