<svg xmlns="http://www.w3.org/2000/svg" width="20.775" height="19.69" viewBox="0 0 20.775 19.69">
  <g id="组_586" data-name="组 586" transform="translate(1.414)">
    <g id="路径_1996" data-name="路径 1996" transform="translate(4.052 0)" fill="none">
      <path d="M7.654,0A7.654,7.654,0,1,1,0,7.654,7.654,7.654,0,0,1,7.654,0Z" stroke="none"/>
      <path d="M 7.654417991638184 1.999998092651367 C 4.536558151245117 1.999998092651367 1.999998092651367 4.536558151245117 1.999998092651367 7.654417991638184 C 1.999998092651367 10.77227783203125 4.536558151245117 13.308837890625 7.654417991638184 13.308837890625 C 10.77227783203125 13.308837890625 13.308837890625 10.77227783203125 13.308837890625 7.654417991638184 C 13.308837890625 4.536558151245117 10.77227783203125 1.999998092651367 7.654417991638184 1.999998092651367 M 7.654417991638184 -1.9073486328125e-06 C 11.88183784484863 -1.9073486328125e-06 15.308837890625 3.426998138427734 15.308837890625 7.654417991638184 C 15.308837890625 11.88183784484863 11.88183784484863 15.308837890625 7.654417991638184 15.308837890625 C 3.426998138427734 15.308837890625 -1.9073486328125e-06 11.88183784484863 -1.9073486328125e-06 7.654417991638184 C -1.9073486328125e-06 3.426998138427734 3.426998138427734 -1.9073486328125e-06 7.654417991638184 -1.9073486328125e-06 Z" stroke="none" fill="#fff"/>
    </g>
    <line id="直线_3" data-name="直线 3" y1="5.842" x2="5.777" transform="translate(0 12.433)" fill="none" stroke="#fff" stroke-linecap="round" stroke-width="2" opacity="0.61"/>
  </g>
</svg>
